<mxfile host="65bd71144e">
    <diagram id="_aNKqtpAolMP1ZlM0AlT" name="Page-1">
        <mxGraphModel dx="586" dy="337" grid="1" gridSize="10" guides="1" tooltips="1" connect="1" arrows="1" fold="1" page="1" pageScale="1" pageWidth="1169" pageHeight="827" math="0" shadow="0">
            <root>
                <mxCell id="0"/>
                <mxCell id="1" parent="0"/>
                <mxCell id="23" style="edgeStyle=none;html=1;exitX=0;exitY=0;exitDx=0;exitDy=20;exitPerimeter=0;" edge="1" parent="1" source="12">
                    <mxGeometry relative="1" as="geometry">
                        <mxPoint x="340" y="80" as="targetPoint"/>
                        <Array as="points">
                            <mxPoint x="350" y="100"/>
                        </Array>
                    </mxGeometry>
                </mxCell>
                <mxCell id="31" style="edgeStyle=none;html=1;exitX=0;exitY=0;exitDx=80;exitDy=30;exitPerimeter=0;entryX=0;entryY=0;entryDx=0;entryDy=20;entryPerimeter=0;" edge="1" parent="1" source="12" target="25">
                    <mxGeometry relative="1" as="geometry"/>
                </mxCell>
                <mxCell id="12" value="IDLE" style="shadow=0;dashed=0;align=center;html=1;strokeWidth=1;shape=mxgraph.rtl.abstract.entity;container=1;collapsible=0;kind=combinational;drawPins=0;left=3;right=2;bottom=0;top=0;rotation=0;" parent="1" vertex="1">
                    <mxGeometry x="410" y="80" width="80" height="80" as="geometry"/>
                </mxCell>
                <mxCell id="29" style="edgeStyle=none;html=1;exitX=0;exitY=0;exitDx=80;exitDy=30;exitPerimeter=0;entryX=0;entryY=0;entryDx=0;entryDy=60;entryPerimeter=0;" edge="1" parent="1" source="17" target="12">
                    <mxGeometry relative="1" as="geometry">
                        <mxPoint x="420" y="190" as="targetPoint"/>
                    </mxGeometry>
                </mxCell>
                <mxCell id="17" value="AXI_WRITE" style="shadow=0;dashed=0;align=center;html=1;strokeWidth=1;shape=mxgraph.rtl.abstract.entity;container=1;collapsible=0;kind=combinational;drawPins=0;left=3;right=2;bottom=0;top=0;rotation=0;" parent="1" vertex="1">
                    <mxGeometry x="350" y="440" width="80" height="80" as="geometry"/>
                </mxCell>
                <mxCell id="28" style="edgeStyle=none;html=1;exitX=0;exitY=0;exitDx=0;exitDy=60;exitPerimeter=0;entryX=0;entryY=0;entryDx=0;entryDy=60;entryPerimeter=0;" edge="1" parent="1" source="18" target="17">
                    <mxGeometry relative="1" as="geometry">
                        <Array as="points">
                            <mxPoint x="200" y="500"/>
                        </Array>
                    </mxGeometry>
                </mxCell>
                <mxCell id="18" value="FIR2COEFF_R" style="shadow=0;dashed=0;align=center;html=1;strokeWidth=1;shape=mxgraph.rtl.abstract.entity;container=1;collapsible=0;kind=combinational;drawPins=0;left=3;right=2;bottom=0;top=0;rotation=0;" parent="1" vertex="1">
                    <mxGeometry x="185" y="374" width="110" height="80" as="geometry"/>
                </mxCell>
                <mxCell id="24" style="edgeStyle=none;html=1;entryX=0;entryY=0;entryDx=11;entryDy=20;entryPerimeter=0;" edge="1" parent="1" target="20">
                    <mxGeometry relative="1" as="geometry">
                        <mxPoint x="80" y="180" as="sourcePoint"/>
                        <Array as="points">
                            <mxPoint x="120" y="240"/>
                        </Array>
                    </mxGeometry>
                </mxCell>
                <mxCell id="35" value="axi_write == 1" style="edgeLabel;html=1;align=center;verticalAlign=middle;resizable=0;points=[];" vertex="1" connectable="0" parent="24">
                    <mxGeometry x="-0.681" y="1" relative="1" as="geometry">
                        <mxPoint x="-55" y="4" as="offset"/>
                    </mxGeometry>
                </mxCell>
                <mxCell id="36" style="edgeStyle=none;html=1;exitX=0;exitY=0;exitDx=0;exitDy=60;exitPerimeter=0;entryX=0;entryY=0;entryDx=0;entryDy=20;entryPerimeter=0;" edge="1" parent="1" source="20" target="18">
                    <mxGeometry relative="1" as="geometry">
                        <Array as="points">
                            <mxPoint x="130" y="390"/>
                        </Array>
                    </mxGeometry>
                </mxCell>
                <mxCell id="20" value="WAIT_ON_WRITE_ENABLE" style="shadow=0;dashed=0;align=center;html=1;strokeWidth=1;shape=mxgraph.rtl.abstract.entity;container=1;collapsible=0;kind=combinational;drawPins=0;left=3;right=2;bottom=0;top=0;rotation=0;" parent="1" vertex="1">
                    <mxGeometry x="150" y="260" width="170" height="80" as="geometry"/>
                </mxCell>
                <mxCell id="30" style="edgeStyle=none;html=1;exitX=0;exitY=0;exitDx=0;exitDy=20;exitPerimeter=0;entryX=0;entryY=0;entryDx=80;entryDy=60;entryPerimeter=0;" edge="1" parent="1" source="21" target="12">
                    <mxGeometry relative="1" as="geometry"/>
                </mxCell>
                <mxCell id="21" value="AXI_READ" style="shadow=0;dashed=0;align=center;html=1;strokeWidth=1;shape=mxgraph.rtl.abstract.entity;container=1;collapsible=0;kind=combinational;drawPins=0;left=3;right=2;bottom=0;top=0;rotation=0;" vertex="1" parent="1">
                    <mxGeometry x="510" y="440" width="80" height="80" as="geometry"/>
                </mxCell>
                <mxCell id="34" style="edgeStyle=none;html=1;exitX=0;exitY=0;exitDx=0;exitDy=60;exitPerimeter=0;entryX=0;entryY=0;entryDx=80;entryDy=30;entryPerimeter=0;" edge="1" parent="1" source="22" target="21">
                    <mxGeometry relative="1" as="geometry"/>
                </mxCell>
                <mxCell id="22" value="HIST_READ" style="shadow=0;dashed=0;align=center;html=1;strokeWidth=1;shape=mxgraph.rtl.abstract.entity;container=1;collapsible=0;kind=combinational;drawPins=0;left=3;right=2;bottom=0;top=0;rotation=0;" vertex="1" parent="1">
                    <mxGeometry x="710" y="374" width="80" height="80" as="geometry"/>
                </mxCell>
                <mxCell id="32" style="edgeStyle=none;html=1;exitX=0;exitY=0;exitDx=150;exitDy=60;exitPerimeter=0;entryX=0;entryY=0;entryDx=170;entryDy=30;entryPerimeter=0;" edge="1" parent="1" source="25" target="26">
                    <mxGeometry relative="1" as="geometry">
                        <Array as="points">
                            <mxPoint x="870" y="150"/>
                        </Array>
                    </mxGeometry>
                </mxCell>
                <mxCell id="25" value="AXI_READ_ESTABLISH" style="shadow=0;dashed=0;align=center;html=1;strokeWidth=1;shape=mxgraph.rtl.abstract.entity;container=1;collapsible=0;kind=combinational;drawPins=0;left=3;right=2;bottom=0;top=0;rotation=0;" vertex="1" parent="1">
                    <mxGeometry x="580" y="90" width="150" height="80" as="geometry"/>
                </mxCell>
                <mxCell id="33" style="edgeStyle=none;html=1;exitX=0;exitY=0;exitDx=170;exitDy=60;exitPerimeter=0;entryX=0;entryY=0;entryDx=80;entryDy=30;entryPerimeter=0;" edge="1" parent="1" source="26" target="22">
                    <mxGeometry relative="1" as="geometry"/>
                </mxCell>
                <mxCell id="26" value="WAIT_ON_READ_ENABLE" style="shadow=0;dashed=0;align=center;html=1;strokeWidth=1;shape=mxgraph.rtl.abstract.entity;container=1;collapsible=0;kind=combinational;drawPins=0;left=3;right=2;bottom=0;top=0;rotation=0;" vertex="1" parent="1">
                    <mxGeometry x="710" y="200" width="170" height="80" as="geometry"/>
                </mxCell>
                <mxCell id="37" value="dv == 0" style="text;html=1;align=center;verticalAlign=middle;resizable=0;points=[];autosize=1;strokeColor=none;fillColor=none;" vertex="1" parent="1">
                    <mxGeometry x="60" y="350" width="60" height="30" as="geometry"/>
                </mxCell>
                <mxCell id="47" style="edgeStyle=none;html=1;exitX=0.49;exitY=0.99;exitDx=0;exitDy=0;exitPerimeter=0;entryX=0.488;entryY=-0.034;entryDx=0;entryDy=0;entryPerimeter=0;" edge="1" parent="1" source="39" target="40">
                    <mxGeometry relative="1" as="geometry"/>
                </mxCell>
                <mxCell id="39" value="AXI_WRITE_ESTABLISH" style="shadow=0;dashed=0;align=center;html=1;strokeWidth=1;shape=mxgraph.rtl.abstract.entity;container=1;collapsible=0;kind=combinational;drawPins=0;left=3;right=2;bottom=0;top=0;rotation=0;points=[[0,0.25,0,-3,0],[0,0.5,0,0,0],[0,0.75,0,0,0],[0.07,0.25,0,0,0],[0.07,0.75,0,0,0],[0.24,0.92,0,0,0],[0.25,0.06,0,0,0],[0.49,0,0,0,-12],[0.49,0,0,0,0],[0.49,0.99,0,0,0],[0.49,1,0,0,8],[0.78,0.91,0,0,0],[0.82,0.11,0,0,0],[0.93,0.75,0,0,0],[0.98,0.38,0,0,0],[1,0.38,0,0,0],[1,0.75,0,0,0]];" vertex="1" parent="1">
                    <mxGeometry x="235" y="760" width="160" height="80" as="geometry"/>
                </mxCell>
                <mxCell id="48" style="edgeStyle=none;html=1;exitX=0.49;exitY=0.99;exitDx=0;exitDy=0;exitPerimeter=0;entryX=0.49;entryY=0;entryDx=0;entryDy=0;entryPerimeter=0;" edge="1" parent="1" source="40" target="41">
                    <mxGeometry relative="1" as="geometry"/>
                </mxCell>
                <mxCell id="40" value="WAIT_ON_WRITE" style="shadow=0;dashed=0;align=center;html=1;strokeWidth=1;shape=mxgraph.rtl.abstract.entity;container=1;collapsible=0;kind=combinational;drawPins=0;left=3;right=2;bottom=0;top=0;rotation=0;points=[[0,0.25,0,-3,0],[0,0.5,0,0,0],[0,0.75,0,0,0],[0.07,0.25,0,0,0],[0.07,0.75,0,0,0],[0.24,0.92,0,0,0],[0.25,0.06,0,0,0],[0.49,0,0,0,-12],[0.49,0,0,0,0],[0.49,0.99,0,0,0],[0.49,1,0,0,8],[0.78,0.91,0,0,0],[0.82,0.11,0,0,0],[0.93,0.75,0,0,0],[0.98,0.38,0,0,0],[1,0.38,0,0,0],[1,0.75,0,0,0]];" vertex="1" parent="1">
                    <mxGeometry x="235" y="890" width="160" height="80" as="geometry"/>
                </mxCell>
                <mxCell id="41" value="" style="shadow=0;dashed=0;align=center;html=1;strokeWidth=1;shape=mxgraph.rtl.abstract.entity;container=1;collapsible=0;kind=combinational;drawPins=0;left=3;right=2;bottom=0;top=0;rotation=0;points=[[0,0.25,0,-3,0],[0,0.5,0,0,0],[0,0.75,0,0,0],[0.07,0.25,0,0,0],[0.07,0.75,0,0,0],[0.24,0.92,0,0,0],[0.25,0.06,0,0,0],[0.49,0,0,0,-12],[0.49,0,0,0,0],[0.49,0.99,0,0,0],[0.49,1,0,0,8],[0.78,0.91,0,0,0],[0.82,0.11,0,0,0],[0.93,0.75,0,0,0],[0.98,0.38,0,0,0],[1,0.38,0,0,0],[1,0.75,0,0,0]];" vertex="1" parent="1">
                    <mxGeometry x="235" y="1010" width="160" height="80" as="geometry"/>
                </mxCell>
                <mxCell id="42" value="" style="shadow=0;dashed=0;align=center;html=1;strokeWidth=1;shape=mxgraph.rtl.abstract.entity;container=1;collapsible=0;kind=combinational;drawPins=0;left=3;right=2;bottom=0;top=0;rotation=0;points=[[0,0.25,0,-3,0],[0,0.5,0,0,0],[0,0.75,0,0,0],[0.07,0.25,0,0,0],[0.07,0.75,0,0,0],[0.24,0.92,0,0,0],[0.25,0.06,0,0,0],[0.49,0,0,0,-12],[0.49,0,0,0,0],[0.49,0.99,0,0,0],[0.49,1,0,0,8],[0.78,0.91,0,0,0],[0.82,0.11,0,0,0],[0.93,0.75,0,0,0],[0.98,0.38,0,0,0],[1,0.38,0,0,0],[1,0.75,0,0,0]];" vertex="1" parent="1">
                    <mxGeometry x="235" y="1130" width="160" height="80" as="geometry"/>
                </mxCell>
                <mxCell id="43" value="" style="shadow=0;dashed=0;align=center;html=1;strokeWidth=1;shape=mxgraph.rtl.abstract.entity;container=1;collapsible=0;kind=combinational;drawPins=0;left=3;right=2;bottom=0;top=0;rotation=0;points=[[0,0.25,0,-3,0],[0,0.5,0,0,0],[0,0.75,0,0,0],[0.07,0.25,0,0,0],[0.07,0.75,0,0,0],[0.24,0.92,0,0,0],[0.25,0.06,0,0,0],[0.49,0,0,0,-12],[0.49,0,0,0,0],[0.49,0.99,0,0,0],[0.49,1,0,0,8],[0.78,0.91,0,0,0],[0.82,0.11,0,0,0],[0.93,0.75,0,0,0],[0.98,0.38,0,0,0],[1,0.38,0,0,0],[1,0.75,0,0,0]];" vertex="1" parent="1">
                    <mxGeometry x="775" y="760" width="160" height="80" as="geometry"/>
                </mxCell>
                <mxCell id="44" value="" style="shadow=0;dashed=0;align=center;html=1;strokeWidth=1;shape=mxgraph.rtl.abstract.entity;container=1;collapsible=0;kind=combinational;drawPins=0;left=3;right=2;bottom=0;top=0;rotation=0;points=[[0,0.25,0,-3,0],[0,0.5,0,0,0],[0,0.75,0,0,0],[0.07,0.25,0,0,0],[0.07,0.75,0,0,0],[0.24,0.92,0,0,0],[0.25,0.06,0,0,0],[0.49,0,0,0,-12],[0.49,0,0,0,0],[0.49,0.99,0,0,0],[0.49,1,0,0,8],[0.78,0.91,0,0,0],[0.82,0.11,0,0,0],[0.93,0.75,0,0,0],[0.98,0.38,0,0,0],[1,0.38,0,0,0],[1,0.75,0,0,0]];" vertex="1" parent="1">
                    <mxGeometry x="775" y="880" width="160" height="80" as="geometry"/>
                </mxCell>
                <mxCell id="45" value="" style="shadow=0;dashed=0;align=center;html=1;strokeWidth=1;shape=mxgraph.rtl.abstract.entity;container=1;collapsible=0;kind=combinational;drawPins=0;left=3;right=2;bottom=0;top=0;rotation=0;points=[[0,0.25,0,-3,0],[0,0.5,0,0,0],[0,0.75,0,0,0],[0.07,0.25,0,0,0],[0.07,0.75,0,0,0],[0.24,0.92,0,0,0],[0.25,0.06,0,0,0],[0.49,0,0,0,-12],[0.49,0,0,0,0],[0.49,0.99,0,0,0],[0.49,1,0,0,8],[0.78,0.91,0,0,0],[0.82,0.11,0,0,0],[0.93,0.75,0,0,0],[0.98,0.38,0,0,0],[1,0.38,0,0,0],[1,0.75,0,0,0]];" vertex="1" parent="1">
                    <mxGeometry x="775" y="1000" width="160" height="80" as="geometry"/>
                </mxCell>
                <mxCell id="46" value="" style="shadow=0;dashed=0;align=center;html=1;strokeWidth=1;shape=mxgraph.rtl.abstract.entity;container=1;collapsible=0;kind=combinational;drawPins=0;left=3;right=2;bottom=0;top=0;rotation=0;points=[[0,0.25,0,-3,0],[0,0.5,0,0,0],[0,0.75,0,0,0],[0.07,0.25,0,0,0],[0.07,0.75,0,0,0],[0.24,0.92,0,0,0],[0.25,0.06,0,0,0],[0.49,0,0,0,-12],[0.49,0,0,0,0],[0.49,0.99,0,0,0],[0.49,1,0,0,8],[0.78,0.91,0,0,0],[0.82,0.11,0,0,0],[0.93,0.75,0,0,0],[0.98,0.38,0,0,0],[1,0.38,0,0,0],[1,0.75,0,0,0]];" vertex="1" parent="1">
                    <mxGeometry x="775" y="1120" width="160" height="80" as="geometry"/>
                </mxCell>
            </root>
        </mxGraphModel>
    </diagram>
</mxfile>